#N canvas 391 171 450 300 12;
#X obj 69 20 inlet;
#X obj 69 92 list fromsymbol;
#X obj 69 116 list split 1;
#N canvas 121 146 450 300 list-splat-1 0;
#X obj 151 25 inlet;
#X obj 227 96 inlet;
#X obj 151 422 outlet;
#X obj 183 382 outlet;
#X obj 216 351 outlet;
#X obj 151 300 list split;
#X obj 151 49 t a a;
#X obj 211 146 moses;
#X obj 181 96 t f f;
#X msg 211 168 1;
#X obj 165 232 +;
#X obj 178 71 list length;
#X obj 211 123 - 1;
#X connect 0 0 6 0;
#X connect 1 0 12 1;
#X connect 5 0 2 0;
#X connect 5 1 3 0;
#X connect 5 2 4 0;
#X connect 6 0 5 0;
#X connect 6 1 11 0;
#X connect 7 0 9 0;
#X connect 7 1 5 1;
#X connect 8 0 10 1;
#X connect 8 1 12 0;
#X connect 9 0 10 0;
#X connect 10 0 5 1;
#X connect 11 0 8 0;
#X connect 12 0 7 0;
#X restore 109 140 pd list-splat-1;
#X obj 109 189 outlet;
#X obj 109 166 list tosymbol;
#X connect 0 0 1 0;
#X connect 1 0 2 0;
#X connect 2 1 3 0;
#X connect 3 0 5 0;
#X connect 5 0 4 0;
